<mxfile host="app.diagrams.net" modified="2023-08-09T07:37:58.403Z" agent="Mozilla/5.0 (Windows NT 10.0; Win64; x64; rv:109.0) Gecko/20100101 Firefox/116.0" etag="X4bBFWqfjxmmn11kJyZQ" version="21.6.7">
  <diagram name="Page-1" id="0-Dh4XHfn2kFjg5MDQxY">
    <mxGraphModel dx="2049" dy="1091" grid="1" gridSize="10" guides="1" tooltips="1" connect="1" arrows="1" fold="1" page="1" pageScale="1" pageWidth="1600" pageHeight="900" math="0" shadow="0">
      <root>
        <mxCell id="0" />
        <mxCell id="1" parent="0" />
        <mxCell id="xJuPg4SLmBhcce86Zfza-1" value="" style="rounded=0;whiteSpace=wrap;html=1;imageWidth=1920;imageHeight=1080;" parent="1" vertex="1">
          <mxGeometry width="1920" height="1080" as="geometry" />
        </mxCell>
        <mxCell id="xJuPg4SLmBhcce86Zfza-2" value="&lt;h1&gt;&lt;font style=&quot;font-size: 100px;&quot;&gt;Realm Render&lt;/font&gt;&lt;/h1&gt;" style="text;html=1;strokeColor=none;fillColor=none;align=center;verticalAlign=middle;whiteSpace=wrap;rounded=0;fontFamily=Tahoma;" parent="1" vertex="1">
          <mxGeometry x="60" width="960" height="310" as="geometry" />
        </mxCell>
        <mxCell id="xJuPg4SLmBhcce86Zfza-17" value="" style="verticalLabelPosition=bottom;verticalAlign=top;html=1;shape=mxgraph.basic.orthogonal_triangle;direction=north;strokeColor=none;fillColor=#D5E3DE;" parent="1" vertex="1">
          <mxGeometry x="1160" y="160" width="760" height="920" as="geometry" />
        </mxCell>
        <mxCell id="xJuPg4SLmBhcce86Zfza-15" value="" style="verticalLabelPosition=bottom;verticalAlign=top;html=1;shape=mxgraph.basic.orthogonal_triangle;flipH=1;fillColor=#ECFFD9;strokeColor=none;" parent="1" vertex="1">
          <mxGeometry y="530" width="1920" height="390" as="geometry" />
        </mxCell>
        <mxCell id="xJuPg4SLmBhcce86Zfza-14" value="" style="verticalLabelPosition=bottom;verticalAlign=top;html=1;shape=mxgraph.basic.orthogonal_triangle;flipH=0;fillColor=#CDE3B6;strokeColor=none;" parent="1" vertex="1">
          <mxGeometry y="620" width="1910" height="460" as="geometry" />
        </mxCell>
        <mxCell id="xJuPg4SLmBhcce86Zfza-8" value="" style="group;rounded=1;arcSize=16;horizontal=1;verticalAlign=middle;" parent="1" vertex="1" connectable="0">
          <mxGeometry x="190" y="390" width="740" height="270" as="geometry" />
        </mxCell>
        <mxCell id="xJuPg4SLmBhcce86Zfza-3" value="" style="rounded=1;whiteSpace=wrap;html=1;" parent="xJuPg4SLmBhcce86Zfza-8" vertex="1">
          <mxGeometry x="10" width="710" height="270" as="geometry" />
        </mxCell>
        <mxCell id="xJuPg4SLmBhcce86Zfza-6" value="&lt;p style=&quot;line-height: 100%;&quot;&gt;&lt;font style=&quot;font-size: 30px;&quot;&gt;Load&lt;/font&gt;&lt;/p&gt;" style="rounded=1;whiteSpace=wrap;html=1;fontFamily=Tahoma;fontSize=45;verticalAlign=middle;align=center;labelPosition=center;verticalLabelPosition=middle;labelBackgroundColor=none;spacingBottom=10;" parent="xJuPg4SLmBhcce86Zfza-8" vertex="1">
          <mxGeometry x="500" y="174.70588235294116" width="180" height="63.52941176470588" as="geometry" />
        </mxCell>
        <mxCell id="kLSFrflN7GJqrzryt3uc-1" value="&lt;font style=&quot;font-size: 30px;&quot; face=&quot;Tahoma&quot;&gt;+Select file&lt;/font&gt;" style="rounded=1;whiteSpace=wrap;html=1;strokeColor=#808080;spacing=0;textOpacity=50;" vertex="1" parent="xJuPg4SLmBhcce86Zfza-8">
          <mxGeometry x="50" y="174.70588235294116" width="230" height="63.52941176470588" as="geometry" />
        </mxCell>
        <mxCell id="kLSFrflN7GJqrzryt3uc-2" value="&lt;div style=&quot;font-size: 44px;&quot; align=&quot;left&quot;&gt;&lt;font style=&quot;font-size: 40px;&quot; face=&quot;Tahoma&quot;&gt;&amp;nbsp;Paste &lt;/font&gt;&lt;font style=&quot;font-size: 40px;&quot; face=&quot;Tahoma&quot;&gt;xml&lt;/font&gt;&lt;/div&gt;" style="rounded=0;whiteSpace=wrap;html=1;align=left;textOpacity=30;" vertex="1" parent="xJuPg4SLmBhcce86Zfza-8">
          <mxGeometry x="50" y="30" width="630" height="118.97" as="geometry" />
        </mxCell>
        <mxCell id="kLSFrflN7GJqrzryt3uc-3" value="" style="endArrow=none;html=1;rounded=0;" edge="1" parent="xJuPg4SLmBhcce86Zfza-8">
          <mxGeometry width="50" height="50" relative="1" as="geometry">
            <mxPoint x="630" y="150" as="sourcePoint" />
            <mxPoint x="680" y="100" as="targetPoint" />
          </mxGeometry>
        </mxCell>
        <mxCell id="kLSFrflN7GJqrzryt3uc-5" value="" style="endArrow=none;html=1;rounded=0;" edge="1" parent="xJuPg4SLmBhcce86Zfza-8">
          <mxGeometry width="50" height="50" relative="1" as="geometry">
            <mxPoint x="650" y="150" as="sourcePoint" />
            <mxPoint x="680" y="120" as="targetPoint" />
          </mxGeometry>
        </mxCell>
        <mxCell id="xJuPg4SLmBhcce86Zfza-13" value="" style="verticalLabelPosition=bottom;verticalAlign=top;html=1;shape=mxgraph.basic.orthogonal_triangle;flipH=1;fillColor=#CFED7E;strokeColor=none;" parent="1" vertex="1">
          <mxGeometry x="660" y="620" width="1260" height="460" as="geometry" />
        </mxCell>
        <mxCell id="xJuPg4SLmBhcce86Zfza-22" value="" style="group" parent="1" vertex="1" connectable="0">
          <mxGeometry x="1425" y="770" width="100" height="150" as="geometry" />
        </mxCell>
        <mxCell id="xJuPg4SLmBhcce86Zfza-18" value="" style="rounded=0;whiteSpace=wrap;html=1;strokeColor=none;fillColor=#C79E2C;" parent="xJuPg4SLmBhcce86Zfza-22" vertex="1">
          <mxGeometry x="25" y="90" width="50" height="60" as="geometry" />
        </mxCell>
        <mxCell id="xJuPg4SLmBhcce86Zfza-21" value="" style="group" parent="xJuPg4SLmBhcce86Zfza-22" vertex="1" connectable="0">
          <mxGeometry width="100" height="115" as="geometry" />
        </mxCell>
        <mxCell id="xJuPg4SLmBhcce86Zfza-19" value="" style="verticalLabelPosition=bottom;verticalAlign=top;html=1;shape=mxgraph.basic.acute_triangle;dx=0.5;fillColor=#71B012;strokeColor=none;" parent="xJuPg4SLmBhcce86Zfza-21" vertex="1">
          <mxGeometry y="45" width="100" height="70" as="geometry" />
        </mxCell>
        <mxCell id="xJuPg4SLmBhcce86Zfza-20" value="" style="verticalLabelPosition=bottom;verticalAlign=top;html=1;shape=mxgraph.basic.acute_triangle;dx=0.5;fillColor=#71B012;strokeColor=none;" parent="xJuPg4SLmBhcce86Zfza-21" vertex="1">
          <mxGeometry width="100" height="90" as="geometry" />
        </mxCell>
        <mxCell id="xJuPg4SLmBhcce86Zfza-23" value="" style="group" parent="1" vertex="1" connectable="0">
          <mxGeometry x="1200" y="820" width="100" height="150" as="geometry" />
        </mxCell>
        <mxCell id="xJuPg4SLmBhcce86Zfza-24" value="" style="rounded=0;whiteSpace=wrap;html=1;strokeColor=none;fillColor=#C79E2C;" parent="xJuPg4SLmBhcce86Zfza-23" vertex="1">
          <mxGeometry x="25" y="90" width="50" height="60" as="geometry" />
        </mxCell>
        <mxCell id="xJuPg4SLmBhcce86Zfza-25" value="" style="group" parent="xJuPg4SLmBhcce86Zfza-23" vertex="1" connectable="0">
          <mxGeometry width="100" height="115" as="geometry" />
        </mxCell>
        <mxCell id="xJuPg4SLmBhcce86Zfza-26" value="" style="verticalLabelPosition=bottom;verticalAlign=top;html=1;shape=mxgraph.basic.acute_triangle;dx=0.5;fillColor=#71B012;strokeColor=none;" parent="xJuPg4SLmBhcce86Zfza-25" vertex="1">
          <mxGeometry y="45" width="100" height="70" as="geometry" />
        </mxCell>
        <mxCell id="xJuPg4SLmBhcce86Zfza-27" value="" style="verticalLabelPosition=bottom;verticalAlign=top;html=1;shape=mxgraph.basic.acute_triangle;dx=0.5;fillColor=#71B012;strokeColor=none;" parent="xJuPg4SLmBhcce86Zfza-25" vertex="1">
          <mxGeometry width="100" height="90" as="geometry" />
        </mxCell>
        <mxCell id="xJuPg4SLmBhcce86Zfza-34" value="" style="group" parent="1" vertex="1" connectable="0">
          <mxGeometry x="1700" y="780" width="100" height="150" as="geometry" />
        </mxCell>
        <mxCell id="xJuPg4SLmBhcce86Zfza-35" value="" style="rounded=0;whiteSpace=wrap;html=1;strokeColor=none;fillColor=#C79E2C;" parent="xJuPg4SLmBhcce86Zfza-34" vertex="1">
          <mxGeometry x="25" y="90" width="50" height="60" as="geometry" />
        </mxCell>
        <mxCell id="xJuPg4SLmBhcce86Zfza-36" value="" style="group" parent="xJuPg4SLmBhcce86Zfza-34" vertex="1" connectable="0">
          <mxGeometry width="100" height="115" as="geometry" />
        </mxCell>
        <mxCell id="xJuPg4SLmBhcce86Zfza-37" value="" style="verticalLabelPosition=bottom;verticalAlign=top;html=1;shape=mxgraph.basic.acute_triangle;dx=0.5;fillColor=#71B012;strokeColor=none;" parent="xJuPg4SLmBhcce86Zfza-36" vertex="1">
          <mxGeometry y="45" width="100" height="70" as="geometry" />
        </mxCell>
        <mxCell id="xJuPg4SLmBhcce86Zfza-38" value="" style="verticalLabelPosition=bottom;verticalAlign=top;html=1;shape=mxgraph.basic.acute_triangle;dx=0.5;fillColor=#71B012;strokeColor=none;" parent="xJuPg4SLmBhcce86Zfza-36" vertex="1">
          <mxGeometry width="100" height="90" as="geometry" />
        </mxCell>
      </root>
    </mxGraphModel>
  </diagram>
</mxfile>
